HIERARCHY
ROOT Hips
{
	OFFSET 0.00000 0.00000 0.00000
	CHANNELS 6 Xposition Yposition Zposition Zrotation Yrotation Xrotation 
	JOINT LHipJoint
	{
		OFFSET 0 0 0
		CHANNELS 3 Zrotation Yrotation Xrotation
		JOINT LeftHip
		{
			OFFSET 1.58895 -1.83665 0.71753
			CHANNELS 3 Zrotation Yrotation Xrotation
			JOINT LeftKnee
			{
				OFFSET 2.50528 -6.88321 0.00000
				CHANNELS 3 Zrotation Yrotation Xrotation
				JOINT LeftAnkle
				{
					OFFSET 2.63244 -7.23257 0.00000
					CHANNELS 3 Zrotation Yrotation Xrotation
					JOINT LeftToe
					{
						OFFSET 0.23691 -0.65090 1.72750
						CHANNELS 3 Zrotation Yrotation Xrotation
						End Site
						{
							OFFSET 0.00000 -0.00000 0.92561
						}
					}
				}
			}
		}
	}
	JOINT RHipJoint
	{
		OFFSET 0 0 0
		CHANNELS 3 Zrotation Yrotation Xrotation
		JOINT RightHip
		{
			OFFSET -1.51435 -1.83665 0.71753
			CHANNELS 3 Zrotation Yrotation Xrotation
			JOINT RightKnee
			{
				OFFSET -2.54551 -6.99375 0.00000
				CHANNELS 3 Zrotation Yrotation Xrotation
				JOINT RightAnkle
				{
					OFFSET -2.66027 -7.30903 0.00000
					CHANNELS 3 Zrotation Yrotation Xrotation
					JOINT RightToe
					{
						OFFSET -0.22981 -0.63138 2.03959
						CHANNELS 3 Zrotation Yrotation Xrotation
						End Site
						{
							OFFSET -0.00000 -0.00000 1.07060
						}
					}
				}
			}
		}
	}
	JOINT lowerback
	{
		OFFSET 0 0 0
		CHANNELS 3 Zrotation Yrotation Xrotation
		JOINT Chest
		{
			OFFSET -0.02651 1.86275 -0.11152
			CHANNELS 3 Zrotation Yrotation Xrotation
			JOINT Chest2
			{
				OFFSET 0.01019 1.86224 0.04087
				CHANNELS 3 Zrotation Yrotation Xrotation
				JOINT lowerneck
				{
					OFFSET 0 0 0
					CHANNELS 3 Zrotation Yrotation Xrotation
					JOINT Neck
					{
						OFFSET -0.01926 1.80512 0.08867
						CHANNELS 3 Zrotation Yrotation Xrotation
						JOINT Head
						{
							OFFSET 0.05516 1.76451 -0.38475
							CHANNELS 3 Zrotation Yrotation Xrotation
							End Site
							{
								OFFSET 0.01592 1.82587 -0.14001
							}
						}
					}
				}
				JOINT LeftCollar
				{
					OFFSET 0 0 0
					CHANNELS 3 Zrotation Yrotation Xrotation
					JOINT LeftShoulder
					{
						OFFSET 3.47116 1.51376 0.14491
CHANNELS 3 Zrotation Xrotation Yrotation
						JOINT LeftElbow
						{
OFFSET 0 -4.780950 0.000000
CHANNELS 3 Zrotation Xrotation Yrotation
							JOINT LeftWrist
							{
OFFSET 0 -3.586150 -0.000000
CHANNELS 3 Zrotation Xrotation Yrotation
								JOINT lhand
								{
									OFFSET 0 0 0
CHANNELS 3 Zrotation Xrotation Yrotation
									JOINT LFingers
									{
OFFSET 0 -0.659810 0.000000
CHANNELS 3 Zrotation Xrotation Yrotation
										End Site
										{
OFFSET 0 -0.531960 0.000000
										}
									}
								}
								JOINT LThumb
								{
OFFSET 0 0.000000 0.000000
CHANNELS 3 Zrotation Xrotation Yrotation
									End Site
									{
OFFSET 0 -0.540080 0.540080
									}
								}
							}
						}
					}
				}
				JOINT RightCollar
				{
					OFFSET 0 0 0
					CHANNELS 3 Zrotation Yrotation Xrotation
					JOINT RightShoulder
					{
						OFFSET -3.31725 1.61216 0.35156
CHANNELS 3 Zrotation Xrotation Yrotation
						JOINT RightElbow
						{
OFFSET 0 -4.489130 0.000000
CHANNELS 3 Zrotation Xrotation Yrotation
							JOINT RightWrist
							{
OFFSET 0 -3.705100 0.000000
CHANNELS 3 Zrotation Xrotation Yrotation
								JOINT rhand
								{
									OFFSET 0 0 0
CHANNELS 3 Zrotation Xrotation Yrotation
									JOINT RFingers
									{
OFFSET 0 -0.449140 0.000000
CHANNELS 3 Zrotation Xrotation Yrotation
										End Site
										{
OFFSET 0 -0.362110 0.000000
										}
									}
								}
								JOINT RThumb
								{
OFFSET 0 0.000000 0.000000
CHANNELS 3 Zrotation Xrotation Yrotation
									End Site
									{
OFFSET 0 -0.367630 0.367630
									}
								}
							}
						}
					}
				}
			}
		}
	}
}
MOTION
Frames: 12
Frame Time: 0.008333333333333333
-0.822320 18.632901 5.922669 -5.249364 18.365294 9.397919 0.000000 0.000000 0.000000 -4.262319 -19.839023 -20.783429 2.942108 10.600780 30.944877 1.008761 -4.326333 -18.028011 9.010478 -16.814453 -56.126292 0.000000 0.000000 0.000000 22.638724 -15.676933 -5.878053 0.000000 0.000000 0.000000 -0.783535 -7.569937 -21.131144 -0.367131 3.891429 -10.771489 3.592626 0.863059 28.811854 1.412849 2.479246 3.063750 -1.411640 1.002906 -12.451832 1.575004 0.671007 -14.966945 1.131664 0.327814 19.326709 0.158547 0.399314 8.492360 0.000000 0.000000 0.000000 30.292834 41.993034 -80.244198 129.820377 -53.067649 93.682302 28.931596 -38.602619 20.291993 0.000000 0.000000 0.000000 -7.125000 0.000000 0.000000 0.288283 7.076936 0.250609 0.000000 0.000000 0.000000 -32.278749 51.614510 72.430855 -129.276330 -53.283235 -93.246831 -19.565451 3.328483 40.959138 0.000000 0.000000 0.000000 7.125000 0.000000 0.000000 25.844008 71.125707 -16.434172
-0.808687 18.639238 5.926197 -5.204350 18.423491 9.687511 0.000000 0.000000 0.000000 -4.209281 -19.951722 -21.136581 2.951622 10.616336 30.996521 0.999508 -4.402870 -17.934728 8.942737 -16.770759 -55.891882 0.000000 0.000000 0.000000 22.619933 -15.532168 -6.132063 0.000000 0.000000 0.000000 -0.786014 -7.607345 -21.183865 -0.388814 4.003856 -11.087451 3.603032 0.769004 28.842565 1.506406 2.375427 3.085160 -1.271304 0.958739 -12.451626 1.564260 0.831060 -15.429822 1.040459 0.555225 19.723567 0.159841 0.499867 8.711627 0.000000 0.000000 0.000000 29.910052 41.949702 -79.859649 129.751890 -53.095124 93.627552 28.795219 -38.689216 20.164892 0.000000 0.000000 0.000000 -7.125000 0.000000 0.000000 0.218305 7.243830 0.188970 0.000000 0.000000 0.000000 -32.367046 51.343130 72.364999 -129.195296 -53.314919 -93.181856 -19.441846 3.357948 41.329428 0.000000 0.000000 0.000000 7.125000 0.000000 0.000000 26.643289 71.397442 -17.120372
-0.805141 18.655412 5.921403 -5.132353 18.584767 10.097670 0.000000 0.000000 0.000000 -4.062416 -20.111887 -21.716376 2.962096 10.633368 31.053071 0.956951 -4.442384 -17.531588 8.916138 -16.753383 -55.799519 0.000000 0.000000 0.000000 22.683086 -15.419928 -6.582003 0.000000 0.000000 0.000000 -0.788270 -7.657264 -21.244828 -0.351000 3.805183 -10.529358 3.582461 0.650743 29.033073 1.520413 2.226653 3.148184 -1.190185 0.892806 -12.484714 1.801349 1.017471 -15.648886 0.728813 0.814460 20.070249 0.048439 0.608645 8.873417 0.000000 0.000000 0.000000 29.704537 42.011721 -79.412734 129.859606 -53.051897 93.713703 28.450254 -38.689696 19.939251 0.000000 0.000000 0.000000 -7.125000 0.000000 0.000000 0.027462 7.558660 0.023794 0.000000 0.000000 0.000000 -31.753028 51.043487 71.681090 -129.054953 -53.369616 -93.069247 -19.260285 3.359152 41.606206 0.000000 0.000000 0.000000 7.125000 0.000000 0.000000 27.362759 71.567694 -17.703440
-0.808900 18.673568 5.897950 -4.965959 18.745214 10.748401 0.000000 0.000000 0.000000 -3.858815 -20.488740 -22.614323 2.984068 10.669141 31.172044 0.895566 -4.308605 -16.953271 8.890009 -16.736386 -55.708935 0.000000 0.000000 0.000000 22.744750 -15.192710 -7.351019 0.000000 0.000000 0.000000 -0.769053 -7.903694 -21.261358 -0.317218 3.620218 -10.010514 3.539309 0.555203 29.437837 1.430994 2.094043 3.260149 -1.224434 0.831326 -12.566409 1.778695 1.193867 -15.075281 0.694950 1.086708 19.560051 0.067321 0.725931 8.596271 0.000000 0.000000 0.000000 29.672162 42.029625 -79.067713 130.147002 -52.935889 93.943164 28.216210 -38.729591 19.693699 0.000000 0.000000 0.000000 -7.125000 0.000000 0.000000 -0.091304 7.872977 -0.077876 0.000000 0.000000 0.000000 -29.846967 50.736392 69.729017 -128.923161 -53.420657 -92.963508 -18.820634 3.311645 41.346984 0.000000 0.000000 0.000000 7.125000 0.000000 0.000000 27.420690 71.201657 -17.526888
-0.820458 18.685602 5.851264 -4.728597 18.877062 11.455006 0.000000 0.000000 0.000000 -3.675478 -20.803772 -23.761387 3.029814 10.743083 31.418284 0.823431 -4.154781 -16.248936 8.944680 -16.771975 -55.898411 0.000000 0.000000 0.000000 22.756348 -14.904080 -8.228112 0.000000 0.000000 0.000000 -0.720904 -8.295734 -21.127244 -0.304649 3.548899 -9.810762 3.426094 0.485640 30.413769 1.253389 1.989265 3.159458 -1.270578 0.788491 -12.339448 1.459265 1.270918 -12.838465 0.911226 1.284509 16.456858 0.182701 0.793814 7.163697 0.000000 0.000000 0.000000 29.706523 41.827820 -78.773580 130.722974 -52.699737 94.402021 28.072246 -38.736660 19.787479 0.000000 0.000000 0.000000 -7.125000 0.000000 0.000000 -0.194620 7.797031 -0.166511 0.000000 0.000000 0.000000 -30.017954 50.700263 69.947335 -129.505338 -53.193070 -93.430369 -17.960123 2.318501 40.370353 0.000000 0.000000 0.000000 7.125000 0.000000 0.000000 26.769987 70.092744 -16.447399
-0.842182 18.683934 5.774352 -4.453724 18.870916 11.824947 0.000000 0.000000 0.000000 -3.710431 -20.551081 -24.899176 3.121187 10.888477 31.905010 0.750543 -4.327190 -15.477658 9.016514 -16.818331 -56.147309 0.000000 0.000000 0.000000 22.521548 -14.205767 -9.807902 -0.041538 -0.772328 2.127089 -0.799763 -7.769398 -21.448255 -0.299807 3.520444 -9.731321 3.187193 0.452139 32.311244 0.988992 1.897577 3.734705 -1.407301 0.756514 -12.492399 1.012498 1.353910 -9.783486 1.290770 1.511285 11.278230 0.356055 0.867615 5.111612 0.000000 0.000000 0.000000 29.481639 41.709490 -78.129735 131.611804 -52.323511 95.107099 27.710183 -38.516422 20.319344 0.000000 0.000000 0.000000 -7.125000 0.000000 0.000000 -0.490251 7.282811 -0.424635 0.000000 0.000000 0.000000 -29.255521 50.689688 69.507617 -129.852631 -53.054755 -93.708093 -16.009303 1.446705 39.705495 0.000000 0.000000 0.000000 7.125000 0.000000 0.000000 27.970097 68.894444 -16.501708
-0.865416 18.674270 5.677642 -4.305176 18.618183 12.070247 0.000000 0.000000 0.000000 -3.772966 -19.787394 -26.189279 3.255996 11.098009 32.611554 0.685488 -4.506776 -14.763784 9.080986 -16.859567 -56.369777 0.000000 0.000000 0.000000 22.129913 -12.493551 -13.246538 -0.224482 -3.002948 8.290286 -1.136646 -5.675323 -22.936160 -0.321928 3.646154 -10.083340 3.072255 0.452935 34.562001 0.667338 1.888201 4.452643 -1.705051 0.759422 -12.575782 0.449668 1.524543 -5.128319 1.663875 1.920841 3.899283 0.510964 1.009965 2.114365 0.000000 0.000000 0.000000 28.911310 41.917080 -77.269520 132.590096 -51.894811 95.879126 27.766619 -38.329808 21.188326 0.000000 0.000000 0.000000 -7.125000 0.000000 0.000000 -0.563657 6.323073 -0.497835 0.000000 0.000000 0.000000 -27.376728 50.667813 68.022781 -129.467680 -53.207562 -93.400087 -19.700659 5.549225 38.181028 0.000000 0.000000 0.000000 7.125000 0.000000 0.000000 21.458166 68.728833 -12.431264
-0.889036 18.656739 5.589405 -4.429367 18.315863 12.380159 0.000000 0.000000 0.000000 -3.618685 -18.681514 -27.754660 3.423469 11.350821 33.472531 0.627678 -4.447562 -14.118926 9.096015 -16.869136 -56.421548 0.000000 0.000000 0.000000 22.025689 -11.205473 -15.371311 -0.424565 -4.181147 11.587008 -1.270252 -4.891613 -23.565049 -0.389624 4.008202 -11.099740 3.157102 0.422466 36.583883 0.382130 1.905807 5.182260 -2.061227 0.776052 -12.386864 0.225814 1.850174 -1.203583 1.513693 2.503699 -2.264206 0.418140 1.247990 -0.506671 0.000000 0.000000 0.000000 28.154937 42.392227 -76.223473 133.663322 -51.406706 96.721087 28.623001 -38.811050 22.536526 0.000000 0.000000 0.000000 -7.125000 0.000000 0.000000 -0.208396 4.678134 -0.190618 0.000000 0.000000 0.000000 -26.421417 50.761962 67.361896 -129.838407 -53.060412 -93.696769 -19.011937 4.850058 37.944628 0.000000 0.000000 0.000000 7.125000 0.000000 0.000000 21.958148 68.305632 -12.513580
-0.917888 18.626024 5.529179 -4.797437 18.131509 12.998551 0.000000 0.000000 0.000000 -3.009382 -17.946019 -29.587174 3.603774 11.613011 34.377195 0.610708 -4.379249 -13.926136 9.043019 -16.835336 -56.238771 0.000000 0.000000 0.000000 22.442766 -10.405736 -17.420778 -0.602102 -4.960756 13.798020 -1.354938 -3.980575 -23.743219 -0.426365 4.190724 -11.614007 3.314664 0.511456 37.895980 0.303812 2.105952 5.733386 -2.318599 0.870231 -12.214142 -0.172745 1.924304 0.829211 1.616925 2.672112 -5.354041 0.483684 1.312151 -1.830097 0.000000 0.000000 0.000000 27.644384 43.009721 -75.616947 134.750410 -50.888582 97.567325 29.533756 -39.952518 24.023724 0.000000 0.000000 0.000000 -7.125000 0.000000 0.000000 0.131669 2.854236 0.125027 0.000000 0.000000 0.000000 -25.965632 51.289209 66.925597 -130.484069 -52.798217 -94.211907 -26.008134 7.555487 36.491264 0.000000 0.000000 0.000000 7.125000 0.000000 0.000000 11.399379 69.124537 -6.617504
-0.953790 18.589272 5.484072 -5.214730 18.022660 13.669781 0.000000 0.000000 0.000000 -2.150069 -17.802278 -31.249322 3.774889 11.854217 35.218758 0.631458 -4.292023 -14.169203 9.064235 -16.848882 -56.312023 0.000000 0.000000 0.000000 22.979401 -9.529893 -19.251015 -0.769245 -5.596217 15.618258 -1.468609 -3.152219 -24.214921 -0.423205 4.175199 -11.570112 3.180637 0.670717 38.710929 0.376224 2.286931 5.791192 -2.257207 0.948552 -12.436287 -0.148100 1.684681 0.296631 1.558777 2.320449 -3.997682 0.475433 1.144512 -1.300487 0.000000 0.000000 0.000000 27.333251 44.191556 -75.262088 135.660724 -50.440113 98.271737 29.592232 -40.333663 24.953493 0.000000 0.000000 0.000000 -7.125000 0.000000 0.000000 0.022342 1.827925 0.021288 0.000000 0.000000 0.000000 -25.092857 51.989955 65.876531 -130.836525 -52.652428 -94.492405 -27.036342 8.064450 36.560600 0.000000 0.000000 0.000000 7.125000 0.000000 0.000000 10.094910 69.518170 -5.947644
-0.982396 18.550913 5.455929 -5.508461 18.076014 14.321964 0.000000 0.000000 0.000000 -1.333689 -18.187243 -32.608760 3.928526 12.064709 35.961269 0.667647 -4.138778 -14.588260 9.084008 -16.861468 -56.380174 0.000000 0.000000 0.000000 23.441890 -9.023914 -21.002245 -0.937451 -6.167023 17.269875 -1.553367 -2.507562 -24.562944 -0.450865 4.307650 -11.943884 2.746335 0.789741 38.686583 0.651736 2.300896 5.654186 -1.740110 0.964122 -12.613952 -0.231593 1.502959 0.194442 1.552790 2.041363 -2.179890 0.496134 1.012379 -0.713850 0.000000 0.000000 0.000000 26.723395 45.059286 -74.859466 135.819746 -50.360491 98.394414 29.415066 -40.195967 25.240892 0.000000 0.000000 0.000000 -7.125000 0.000000 0.000000 -0.129984 1.557347 -0.126479 0.000000 0.000000 0.000000 -25.589603 52.428587 65.988727 -130.879971 -52.634329 -94.526966 -26.401386 7.715379 37.086913 0.000000 0.000000 0.000000 7.125000 0.000000 0.000000 11.525372 69.831141 -6.876241
-0.989236 18.513873 5.451994 -5.624473 18.122609 14.669238 0.000000 0.000000 0.000000 -0.930504 -18.625047 -33.345495 4.055204 12.233401 36.562886 0.708662 -3.988616 -15.053586 9.096576 -16.869433 -56.423581 0.000000 0.000000 0.000000 23.582532 -8.802868 -22.189993 -1.094719 -6.646969 18.674281 -1.601660 -2.016667 -24.712991 -0.496871 4.518941 -12.541415 2.709723 0.672160 37.787502 0.611950 2.103326 5.694656 -1.665398 0.886867 -12.254855 0.451022 1.270683 -1.165692 0.945560 1.689098 -0.183482 0.218732 0.848250 0.130581 0.000000 0.000000 0.000000 26.928406 44.670595 -74.706334 134.944896 -50.792185 97.717597 28.911270 -39.901837 25.969544 0.000000 0.000000 0.000000 -7.125000 0.000000 0.000000 -0.548105 0.889671 -0.541892 0.000000 0.000000 0.000000 -26.389942 52.000911 66.901895 -130.450750 -52.811679 -94.185267 -26.219543 7.653131 37.071925 0.000000 0.000000 0.000000 7.125000 0.000000 0.000000 11.755726 69.757980 -6.996299
